<?xml version="1.0" encoding="iso-8859-1"?>
<!-- Generator: Adobe Illustrator 18.0.0, SVG Export Plug-In . SVG Version: 6.00 Build 0)  -->
<!DOCTYPE svg PUBLIC "-//W3C//DTD SVG 1.1//EN" "http://www.w3.org/Graphics/SVG/1.1/DTD/svg11.dtd">
<svg version="1.1" id="Capa_1" xmlns="http://www.w3.org/2000/svg" xmlns:xlink="http://www.w3.org/1999/xlink" x="0px" y="0px"
	 viewBox="0 0 355.826 355.826" style="enable-background:new 0 0 355.826 355.826;" xml:space="preserve">
<g>
	<g>
		<path d="M320.248,38.777c-7.241-8.395-19.402-13.216-36.188-14.396c0.197-10.111-0.055-16.497-0.084-17.2
			C283.806,3.167,280.501,0,276.482,0h-98.57h-98.57c-4.018,0-7.322,3.167-7.492,7.182c-0.03,0.703-0.281,7.089-0.085,17.2
			c-16.786,1.18-28.945,6.001-36.188,14.396c-6.481,7.513-8.882,17.428-7.136,29.472c0.279,2.712,3.214,29.162,14.183,58.464
			c7.608,20.325,18.825,33.628,33.339,39.538c6.023,2.452,11.85,3.285,16.988,3.285c5.602,0,10.369-0.99,13.691-1.951
			c11.855,17.912,26.521,30.348,43.733,37.044c-3.439,51.867-39.618,61.926-46.624,63.389H85.039c-4.142,0-7.5,3.357-7.5,7.5v72.809
			c0,4.142,3.358,7.5,7.5,7.5h185.748c4.142,0,7.5-3.358,7.5-7.5v-72.809c0-4.143-3.358-7.5-7.5-7.5h-18.716
			c-7.013-1.466-43.183-11.529-46.621-63.39c17.211-6.696,31.877-19.131,43.732-37.043c3.321,0.961,8.089,1.951,13.692,1.951
			c5.137,0,10.966-0.834,16.988-3.286c14.514-5.91,25.73-19.212,33.338-39.537c10.969-29.302,13.904-55.752,14.184-58.463
			C329.131,56.206,326.73,46.29,320.248,38.777z M177.912,15h91.189c0.005,2.478-0.019,5.548-0.097,9.087H86.82
			c-0.078-3.539-0.101-6.609-0.096-9.087H177.912z M81.432,152.28c-10.387-4.314-18.718-14.685-24.76-30.825
			C46.059,93.1,43.377,66.858,43.352,66.601c-0.012-0.124-0.027-0.248-0.045-0.371c-1.144-7.723,0.042-13.498,3.628-17.654
			c4.448-5.155,13.157-8.285,25.389-9.199c0.983,18,3.388,41.57,9.009,65.509c4.42,18.821,10.248,35.231,17.4,49.15
			C94.244,154.802,87.94,154.983,81.432,152.28z M263.287,340.826H92.539v-57.809h170.748V340.826z M219.377,268.018h-82.928
			c12.065-9.944,25.745-27.927,28.633-59.171c8.502,2.086,15.652,2.255,25.662,0C193.633,240.09,207.313,258.073,219.377,268.018z
			 M159.541,191.954C102.925,173.635,90.143,86.638,87.42,39.087h180.985c-2.721,47.532-15.585,134.2-72.052,152.844
			C185.158,195.627,171.99,195.982,159.541,191.954z M312.52,66.229c-0.017,0.123-0.033,0.247-0.045,0.37
			c-0.025,0.261-2.67,26.4-13.321,54.855c-6.042,16.141-14.372,26.512-24.759,30.825c-6.509,2.703-12.813,2.521-17.301,1.754
			c7.151-13.918,12.979-30.328,17.398-49.148c5.622-23.939,8.026-47.51,9.01-65.51c12.232,0.914,20.941,4.044,25.39,9.2
			C312.477,52.732,313.664,58.507,312.52,66.229z"/>
		<path d="M224.654,292.898h-93.482c-4.143,0-7.5,3.357-7.5,7.5v23.049c0,4.143,3.357,7.5,7.5,7.5h93.482c4.142,0,7.5-3.357,7.5-7.5
			v-23.049C232.154,296.256,228.796,292.898,224.654,292.898z M217.154,315.947h-78.482v-8.049h78.482V315.947z"/>
	</g>
</g>
<g>
</g>
<g>
</g>
<g>
</g>
<g>
</g>
<g>
</g>
<g>
</g>
<g>
</g>
<g>
</g>
<g>
</g>
<g>
</g>
<g>
</g>
<g>
</g>
<g>
</g>
<g>
</g>
<g>
</g>
</svg>
