<svg height="512pt" viewBox="0 0 512 512" width="512pt" xmlns="http://www.w3.org/2000/svg"><path d="m407 60v30h30v-30l-9.84375-30zm0 0" fill="#53433f"/><path d="m452 60h-45v-45c0-8.285156 6.714844-15 15-15h60c8.285156 0 15 6.714844 15 15 0 24.851562-20.148438 45-45 45zm0 0" fill="#ff4b00"/><path d="m482 151-60 15-60-15 47.519531-84.320312c5.9375-8.90625 19.023438-8.90625 24.960938 0zm0 0" fill="#7984eb"/><path d="m75 60v30h30v-30l-9.84375-30zm0 0" fill="#68544f"/><path d="m392 301-30 211h-61l-30-30h-30l-30 30h-61l-30-211h91c8.402344 0 15 6.597656 15 15v15h60v-15c0-8.402344 6.597656-15 15-15zm0 0" fill="#c6e2e7"/><path d="m392 301-30 211h-61l-30-30h-15v-151h30v-15c0-8.402344 6.597656-15 15-15zm0 0" fill="#a8d3d8"/><path d="m120 60h-45v-45c0-8.285156 6.714844-15 15-15h60c8.285156 0 15 6.714844 15 15 0 24.851562-20.148438 45-45 45zm0 0" fill="#ff7816"/><path d="m30 151h120v120h-120zm0 0" fill="#deecf1"/><path d="m150 151-60 15-60-15 47.519531-84.320312c5.9375-8.90625 19.023438-8.90625 24.960938 0zm0 0" fill="#979fef"/><path d="m30 301v196c0 8.285156 6.714844 15 15 15h105v-211l-60-30zm0 0" fill="#deecf1"/><path d="m90 421c-8.289062 0-15-6.710938-15-15v-30c0-8.289062 6.710938-15 15-15s15 6.710938 15 15v30c0 8.289062-6.710938 15-15 15zm0 0" fill="#68544f"/><g fill="#c6e2e7"><path d="m165 211h-30c-8.285156 0-15 6.714844-15 15v15h-60v-15c0-8.285156-6.714844-15-15-15h-30c-8.285156 0-15 6.714844-15 15v38.785156c0 3.980469 1.578125 7.796875 4.394531 10.609375l25.605469 25.605469h120l25.605469-25.605469c2.816406-2.816406 4.394531-6.628906 4.394531-10.609375v-38.785156c0-8.285156-6.714844-15-15-15zm0 0"/><path d="m165 181h-150c-8.289062 0-15-6.710938-15-15s6.710938-15 15-15h150c8.289062 0 15 6.710938 15 15s-6.710938 15-15 15zm0 0"/><path d="m362 166h120v105h-120zm0 0"/><path d="m362 301v211h105c8.285156 0 15-6.714844 15-15v-196l-60-30zm0 0"/></g><path d="m422 421c-8.289062 0-15-6.710938-15-15v-30c0-8.289062 6.710938-15 15-15s15 6.710938 15 15v30c0 8.289062-6.710938 15-15 15zm0 0" fill="#53433f"/><path d="m497 211h-30c-8.285156 0-15 6.714844-15 15v15h-60v-15c0-8.285156-6.714844-15-15-15h-30c-8.285156 0-15 6.714844-15 15v38.785156c0 3.980469 1.578125 7.796875 4.394531 10.609375l25.605469 25.605469h120l25.605469-25.605469c2.816406-2.816406 4.394531-6.628906 4.394531-10.609375v-38.785156c0-8.285156-6.714844-15-15-15zm0 0" fill="#a8d3d8"/><path d="m497 181h-150c-8.289062 0-15-6.710938-15-15s6.710938-15 15-15h150c8.289062 0 15 6.710938 15 15s-6.710938 15-15 15zm0 0" fill="#c6e2e7"/><path d="m301 406v106h-90v-106c0-8.402344 6.597656-15 15-15h60c8.402344 0 15 6.597656 15 15zm0 0" fill="#68544f"/><path d="m301 406v106h-45v-121h30c8.402344 0 15 6.597656 15 15zm0 0" fill="#53433f"/></svg>