<svg height="512pt" viewBox="0 0 512 512" width="512pt" xmlns="http://www.w3.org/2000/svg"><path d="m271 90v45c0 8.402344-6.597656 15-15 15s-15-6.597656-15-15v-45l21.300781-30zm0 0" fill="#725d57"/><path d="m256 150v-81l6.300781-9 8.699219 30v45c0 8.402344-6.597656 15-15 15zm0 0" fill="#53433f"/><path d="m346 0h-90c-8.402344 0-15 6.597656-15 15v75h45c41.101562 0 74.699219-33.300781 75-74.699219 0-8.402343-6.597656-15.300781-15-15.300781zm0 0" fill="#ff7816"/><path d="m361 15.300781c-.300781 41.398438-33.898438 74.699219-75 74.699219h-30v-90h90c8.402344 0 15 6.898438 15 15.300781zm0 0" fill="#dd3400"/><path d="m361 226c0 8.398438-6.597656 15-15 15h-180c-8.402344 0-15-6.601562-15-15 0-57.898438 47.101562-106 105-106s105 48.101562 105 106zm0 0" fill="#deecf1"/><path d="m346 241h-90v-121c57.898438 0 105 48.101562 105 106 0 8.398438-6.597656 15-15 15zm0 0" fill="#a8d3d8"/><path d="m421 226v105h-330v-105c0-8.402344 6.597656-15 15-15h300c8.402344 0 15 6.597656 15 15zm0 0" fill="#8ebac5"/><path d="m421 226v105h-165v-120h150c8.402344 0 15 6.597656 15 15zm0 0" fill="#7ab3c1"/><path d="m497 512h-76l-30-106 30-105h76c8.285156 0 15 6.714844 15 15v181c0 8.285156-6.714844 15-15 15zm0 0" fill="#7ab3c1"/><path d="m91 512h-76c-8.285156 0-15-6.714844-15-15v-181c0-8.285156 6.714844-15 15-15h76l30 90zm0 0" fill="#8ebac5"/><path d="m421 331v181l-12.300781-30-17.699219 30h-30l-15-30-15 30h-30l-16.800781-30-13.199219 30h-30l-14.097656-30-15.902344 30h-30l-15-30-15 30h-30l-11.398438-30-18.601562 30v-181l30-30h270zm0 0" fill="#a8d3d8"/><path d="m421 331v181l-12.300781-30-17.699219 30h-30l-15-30-15 30h-30l-16.800781-30-13.199219 30h-15v-211h135zm0 0" fill="#8ebac5"/><path d="m91 331v181h30v-181l-15-30zm0 0" fill="#c6e2e7"/><path d="m151 301h30v211h-30zm0 0" fill="#c6e2e7"/><path d="m211 301h30v211h-30zm0 0" fill="#c6e2e7"/><g fill="#a8d3d8"><path d="m271 301h30v211h-30zm0 0"/><path d="m331 301h30v211h-30zm0 0"/><path d="m391 331v181h30v-181l-15-30zm0 0"/></g><path d="m413.800781 303.101562-150-90c-2.402343-1.503906-5.101562-2.101562-7.800781-2.101562s-5.398438.597656-7.800781 2.101562l-150 90c-4.5 2.699219-7.199219 7.5-7.199219 12.898438v15h330v-15c0-5.398438-2.699219-10.199219-7.199219-12.898438zm0 0" fill="#deecf1"/><path d="m421 316v15h-165v-120c2.699219 0 5.398438.597656 7.800781 2.101562l150 90c4.5 2.699219 7.199219 7.5 7.199219 12.898438zm0 0" fill="#c6e2e7"/></svg>