<?xml version="1.0" encoding="iso-8859-1"?>
<!-- Generator: Adobe Illustrator 19.0.0, SVG Export Plug-In . SVG Version: 6.00 Build 0)  -->
<svg xmlns="http://www.w3.org/2000/svg" xmlns:xlink="http://www.w3.org/1999/xlink" version="1.1" id="Capa_1" x="0px" y="0px" viewBox="0 0 512 512" style="enable-background:new 0 0 512 512;" xml:space="preserve">
<polygon style="fill: #1f4f5c;" points="114.758,441.379 114.758,229.517 26.482,229.517 26.482,512 273.654,512 273.654,441.379 "/>
<polygon style="fill: #2a606f;" points="273.654,512 194.206,476.69 114.758,441.379 273.654,441.379 "/>
<polygon style="fill:#317385;" points="408.787,158.897 191.487,158.897 114.758,158.897 114.758,441.379 485.516,441.379   485.516,158.897 "/>
<path style="fill: #cbc395;" d="M323.698,291.31c-13.798,16.216-23.561,26.483-23.561,26.483s-9.763-10.266-23.561-26.483H114.758  v52.966h158.897v97.103h52.966v-97.103h158.897V291.31H323.698z"/>
<path style="fill:#366cb6;" d="M414.896,127.117c0,70.206-114.759,190.676-114.759,190.676s-114.759-120.47-114.759-190.676  S236.755,0,300.137,0S414.896,56.911,414.896,127.117z"/>
<circle style="fill:#FFFFFF;" cx="300.139" cy="114.76" r="61.793"/>
<g>
</g>
<g>
</g>
<g>
</g>
<g>
</g>
<g>
</g>
<g>
</g>
<g>
</g>
<g>
</g>
<g>
</g>
<g>
</g>
<g>
</g>
<g>
</g>
<g>
</g>
<g>
</g>
<g>
</g>
</svg>