<svg height="512pt" viewBox="0 -64 512 512" width="512pt" xmlns="http://www.w3.org/2000/svg"><path d="m328 215h128v32h-128zm0 0" fill="#e8ab4c"/><path d="m432 215h24v32h-24zm0 0" fill="#d08a1c"/><path d="m312 247h160v32h-160zm0 0" fill="#e8ab4c"/><path d="m448 247h24v32h-24zm0 0" fill="#d08a1c"/><path d="m440 215v-208h-16l-16 16h-16l-16 16-16-16h-16v192" fill="#e8ab4c"/><path d="m440 7v208h-24v-200l8-8zm0 0" fill="#d08a1c"/><path d="m0 279h512v96h-512zm0 0" fill="#52cd8d"/><path d="m496 279h16v96h-16zm0 0" fill="#31a469"/><g fill="#fff"><path d="m64 335.5h16v15h-16zm0 0"/><path d="m128 335.5h16v15h-16zm0 0"/><path d="m432 303.5h16v15h-16zm0 0"/></g><path d="m40 151h32v160h-32zm0 0" fill="#e8ab4c"/><path d="m40.007812 287.003906h32v24h-32zm0 0" fill="#d08a1c"/><path d="m72 295h32v-128h-32" fill="#e8ab4c"/><path d="m72.007812 295.003906h32v-24h-32" fill="#d08a1c"/><path d="m104 279h96v-16l16-16v-16l16-16-16-16v-16h-112" fill="#e8ab4c"/><path d="m208 255-8 8v16h-96v-24zm0 0" fill="#d08a1c"/><path d="m96 336h16v15h-16zm0 0"/><path d="m400 304h16v15h-16zm0 0"/><path d="m464 304h16v15h-16zm0 0"/><path d="m0 368h512v15h-512zm0 0"/><path d="m200 304h184v15h-184zm0 0"/><path d="m128 304h56v15h-56zm0 0"/><path d="m328 336h120v15h-120zm0 0"/><path d="m160 336h152v15h-152zm0 0"/><path d="m479 272v-32h-16v-32h-16v-208h-26.105469l-16 16h-16l-12.894531 12.894531-12.894531-12.894531h-27.105469v192h-16v32h-16v32h-80v15h288v-15zm-128-241h5.894531l20.25 20.25-9.144531 8.644531v19.105469h15v-12.894531l4.75-4.5 14.820312 14.699219 10.671876-10.609376-26.667969-26.445312 8.53125-8.25h16l16-16h4.894531v193h-81zm-16 192h113v17h-113zm-16 32h145v17h-145zm0 0"/><path d="m32 319h47v-16h32v-16h96v-20.894531l16-16v-16l19.105469-19.105469-19.105469-19.105469v-19.894531h-112v-16h-32v-16h-47v128h-32v15h32zm176-128v11.105469l12.894531 12.894531-12.894531 12.894531v16l-16 16v12.105469h-20.894531l-16.75-16.75 12.644531-13.144531v-27.105469h-15v20.894531l-8.25 8.5-10.570312-10.699219-10.546876 10.859376 27.257813 27.445312h-38.890625v-81zm-112-16v113h-17v-113zm-49-16h17v145h-17zm0 0"/></svg>