<?xml version="1.0" encoding="utf-8"?>
<!-- Generator: Adobe Illustrator 16.0.4, SVG Export Plug-In . SVG Version: 6.00 Build 0)  -->
<!DOCTYPE svg PUBLIC "-//W3C//DTD SVG 1.1//EN" "http://www.w3.org/Graphics/SVG/1.1/DTD/svg11.dtd">
<svg version="1.1" id="Capa_1" xmlns="http://www.w3.org/2000/svg" xmlns:xlink="http://www.w3.org/1999/xlink" x="0px" y="0px"
	 width="148.508px" height="123.758px" viewBox="0 0 148.508 123.758" enable-background="new 0 0 148.508 123.758"
	 xml:space="preserve">
<polygon points="25.656,43.466 37.73,43.466 39.542,99.006 24.148,99.006 "/>
<polygon points="15.394,102.025 133.115,102.025 133.115,108.363 142.17,108.363 142.17,117.419 148.508,117.419 148.508,123.758 
	0,123.758 0,117.419 6.338,117.419 6.338,108.363 15.394,108.363 "/>
<polygon points="139.15,27.166 74.253,0 9.357,27.166 9.357,31.091 139.15,31.091 139.15,27.166 "/>
<rect x="21.732" y="34.109" width="105.042" height="6.035"/>
<polygon points="110.475,43.466 122.547,43.466 124.359,99.006 108.965,99.006 "/>
<polygon points="82.102,43.466 94.477,43.466 96.289,99.006 80.592,99.006 "/>
<polygon points="54.029,43.466 66.103,43.466 67.914,99.006 52.218,99.006 54.029,43.466 "/>
</svg>
