<?xml version="1.0" encoding="iso-8859-1"?>
<!-- Generator: Adobe Illustrator 21.0.0, SVG Export Plug-In . SVG Version: 6.00 Build 0)  -->
<svg xmlns="http://www.w3.org/2000/svg" xmlns:xlink="http://www.w3.org/1999/xlink" version="1.1" id="Capa_1" x="0px" y="0px" viewBox="0 0 43.35 43.35" style="enable-background:new 0 0 43.35 43.35;" xml:space="preserve" width="512" height="512">
<g>
	<g id="_Group__454_">
		
			<ellipse id="_Ellipse__519_" style="opacity:0.15;fill:#45413C;enable-background:new    ;" cx="21.67" cy="40.075" rx="18.03" ry="2.35"/>
		<path style="fill:#FF6242;" d="M26.52,4.935h-9.7c-9,0-16.32,6.66-16.32,15.68c0,10.03,8.17,18.81,18.17,18.81h6    c10,0,18.18-8.78,18.18-18.81C42.84,11.595,35.53,4.935,26.52,4.935z"/>
		<path id="_Path__532_" style="fill:#E04122;" d="M24.67,34.065h-6c-9.11,0-16.62-7.22-18-16c-0.149,0.859-0.226,1.728-0.23,2.6    c0.06,9.98,8.23,18.76,18.23,18.76h6c10,0,18.18-8.78,18.18-18.81c-0.004-0.872-0.081-1.741-0.23-2.6    C41.28,26.845,33.77,34.065,24.67,34.065z"/>
		<path style="fill:#45413C;" d="M24.67,39.924h-6C8.55,39.924,0,31.082,0,20.615c0-9.073,7.388-16.18,16.82-16.18h9.7    c9.428,0,16.82,7.107,16.83,16.18C43.35,31.082,34.795,39.924,24.67,39.924z M16.82,5.435C7.949,5.435,1,12.103,1,20.615    c0,9.925,8.092,18.31,17.67,18.31h6c9.583,0,17.68-8.385,17.68-18.31c-0.009-8.512-6.963-15.18-15.83-15.18H16.82z"/>
		<path id="_Path_2_524_" style="fill:#6DD627;" d="M21.86,11.355c3.055,0.822,5.971,2.097,8.65,3.78    c0.366,0.228,0.847,0.116,1.074-0.25c0.102-0.164,0.14-0.36,0.106-0.55c-0.298-2.152-1.338-4.133-2.94-5.6    c-0.327-0.263-0.378-0.742-0.115-1.069c0.055-0.068,0.121-0.126,0.195-0.171c1.306-0.65,2.701-1.105,4.14-1.35    c0.423-0.081,0.701-0.489,0.62-0.912c-0.045-0.236-0.196-0.438-0.41-0.548c-1.831-1.002-3.923-1.428-6-1.22    c-1.864,0.191-3.601,1.029-4.91,2.37c-0.304,0.32-0.811,0.333-1.131,0.029c-0.01-0.009-0.02-0.019-0.029-0.029    c-1.308-1.359-3.054-2.213-4.93-2.41c-2.077-0.208-4.169,0.218-6,1.22c-0.383,0.197-0.534,0.667-0.338,1.05    c0.11,0.214,0.312,0.365,0.548,0.41c1.439,0.245,2.834,0.7,4.14,1.35c0.358,0.219,0.471,0.687,0.251,1.045    c-0.046,0.074-0.103,0.14-0.171,0.195c-1.61,1.478-2.651,3.474-2.94,5.64c-0.076,0.424,0.206,0.829,0.63,0.906    c0.19,0.034,0.386-0.003,0.55-0.106c2.679-1.683,5.595-2.958,8.65-3.78C21.618,11.328,21.742,11.328,21.86,11.355z"/>
		<g id="_Group_2_302_">
			<path id="_Path_3_521_" style="fill:#9CEB60;" d="M10.37,6.145c0.38,0.07,0.79,0.17,1.2,0.27c1.464-0.575,3.047-0.782,4.61-0.6     c1.864,0.191,3.601,1.029,4.91,2.37c0.304,0.32,0.811,0.333,1.131,0.029c0.01-0.009,0.02-0.019,0.029-0.029     c1.309-1.341,3.046-2.179,4.91-2.37c1.563-0.182,3.146,0.025,4.61,0.6c0.41-0.1,0.82-0.2,1.2-0.27     c0.423-0.081,0.701-0.489,0.62-0.912c-0.045-0.236-0.196-0.438-0.41-0.548c-1.831-1.002-3.923-1.428-6-1.22     c-1.864,0.191-3.601,1.029-4.91,2.37c-0.304,0.32-0.811,0.333-1.131,0.029c-0.01-0.009-0.02-0.019-0.029-0.029     c-1.308-1.359-3.054-2.213-4.93-2.41c-2.077-0.208-4.169,0.218-6,1.22c-0.401,0.158-0.598,0.61-0.44,1.011     C9.844,5.922,10.086,6.11,10.37,6.145z"/>
		</g>
		<path style="fill:#45413C;" d="M12.438,15.752c-0.076,0-0.152-0.006-0.227-0.02c-0.336-0.061-0.629-0.249-0.824-0.529    c-0.196-0.281-0.27-0.621-0.209-0.957c0.301-2.256,1.4-4.366,3.094-5.92c0,0,0.083-0.087,0.083-0.088    c0.036-0.059,0.047-0.129,0.031-0.196c-0.017-0.067-0.058-0.125-0.117-0.161c-1.225-0.608-2.571-1.047-3.963-1.283    c-0.4-0.077-0.728-0.322-0.909-0.675C9.075,5.295,9.324,4.522,9.952,4.2c1.916-1.049,4.091-1.493,6.278-1.272    c1.993,0.209,3.853,1.119,5.24,2.561c0.133,0.127,0.323,0.123,0.437,0.002c1.394-1.427,3.246-2.321,5.222-2.523    c2.187-0.218,4.363,0.223,6.291,1.279c0.342,0.175,0.587,0.503,0.661,0.893c0.064,0.335-0.006,0.676-0.198,0.959    c-0.192,0.283-0.483,0.474-0.819,0.538c-1.401,0.239-2.748,0.678-4.011,1.307c-0.118,0.149-0.101,0.313,0.011,0.403    c1.708,1.562,2.808,3.657,3.122,5.92c0.053,0.293-0.009,0.614-0.178,0.884c-0.371,0.597-1.162,0.782-1.762,0.41    c-2.638-1.658-5.498-2.909-8.505-3.719c-0.042-0.009-0.086-0.009-0.128,0.001c-2.993,0.806-5.857,2.057-8.496,3.716    C12.91,15.687,12.676,15.752,12.438,15.752z M21.685,10.835c0.098,0,0.194,0.011,0.288,0.033c0.006,0.001,0.011,0.003,0.017,0.004    c3.107,0.836,6.063,2.128,8.786,3.839c0.13,0.08,0.304,0.041,0.384-0.091c0.038-0.06,0.052-0.129,0.039-0.197    c-0.285-2.053-1.273-3.935-2.786-5.32c-0.516-0.415-0.602-1.209-0.167-1.75c0.091-0.113,0.2-0.209,0.324-0.285    c1.389-0.694,2.828-1.163,4.316-1.417c0.064-0.013,0.128-0.054,0.17-0.116c0.042-0.062,0.058-0.136,0.043-0.209    c-0.016-0.084-0.071-0.158-0.147-0.197c-1.762-0.964-3.728-1.368-5.722-1.167c-1.742,0.178-3.377,0.967-4.602,2.222    c-0.489,0.515-1.313,0.535-1.833,0.042c-1.27-1.318-2.911-2.12-4.667-2.305c-1.985-0.196-3.958,0.203-5.708,1.161    c-0.149,0.077-0.204,0.246-0.133,0.383c0.04,0.077,0.112,0.131,0.198,0.147c1.478,0.251,2.917,0.721,4.268,1.393    c0.326,0.197,0.527,0.474,0.606,0.801c0.079,0.327,0.025,0.666-0.151,0.953c-0.074,0.123-0.17,0.232-0.284,0.323    c-1.497,1.375-2.485,3.271-2.758,5.317c-0.017,0.096,0,0.17,0.042,0.231c0.043,0.062,0.107,0.103,0.181,0.116    c0.069,0.013,0.139-0.001,0.198-0.038c2.722-1.71,5.678-3.002,8.784-3.838C21.477,10.847,21.583,10.835,21.685,10.835z"/>
		<g>
			<path id="_Path_5_509_" style="fill:#6DD627;" d="M20.1,8.565c-0.077-2.46,0.768-4.861,2.37-6.73     c0.281-0.272,0.659-0.419,1.05-0.41c0.346-0.004,0.688,0.071,1,0.22c0.551,0.256,0.789,0.911,0.533,1.462     c-0.038,0.082-0.086,0.158-0.143,0.228c-0.986,1.623-1.699,3.396-2.11,5.25"/>
			<path style="fill:#45413C;" d="M22.8,9.085c-0.036,0-0.072-0.004-0.109-0.012c-0.27-0.06-0.439-0.327-0.38-0.597     c0.424-1.912,1.154-3.729,2.172-5.401c0.068-0.093,0.096-0.135,0.116-0.18c0.067-0.145,0.074-0.308,0.02-0.458     c-0.055-0.15-0.165-0.271-0.311-0.339c-0.246-0.117-0.515-0.167-0.783-0.173c-0.272,0.005-0.524,0.092-0.708,0.269     c-1.492,1.745-2.292,4.014-2.218,6.355c0.008,0.276-0.208,0.507-0.484,0.516c-0.279,0.009-0.507-0.208-0.515-0.484     c-0.082-2.591,0.803-5.103,2.49-7.071c0.406-0.396,0.921-0.584,1.441-0.585c0.395-0.002,0.824,0.087,1.203,0.269     c0.384,0.179,0.678,0.499,0.824,0.9c0.146,0.402,0.128,0.836-0.053,1.224c-0.055,0.118-0.124,0.229-0.206,0.331     c-0.922,1.524-1.611,3.24-2.012,5.045C23.236,8.926,23.029,9.085,22.8,9.085z"/>
		</g>
	</g>
</g>















</svg>
